<svg xmlns="http://www.w3.org/2000/svg" width="1200" height="700" viewBox="0 0 1200 700">
  <defs>
    <linearGradient id="bg" x1="0" y1="0" x2="1" y2="1">
      <stop offset="0" stop-color="#6366f1" stop-opacity="0.22" />
      <stop offset="1" stop-color="#10b981" stop-opacity="0.18" />
    </linearGradient>
  </defs>
  <rect width="1200" height="700" fill="#0b1020" />
  <rect x="0" y="0" width="1200" height="700" fill="url(#bg)" />
  <rect x="320" y="150" width="560" height="400" rx="24" fill="#111827" stroke="#2a3550" stroke-width="2" />
  <text x="600" y="230" fill="#e5e7eb" font-size="40" font-family="ui-sans-serif, system-ui" text-anchor="middle">
    ????????
  </text>
  <text x="600" y="280" fill="#9ca3af" font-size="20" font-family="ui-sans-serif, system-ui" text-anchor="middle">
    ???????????????????
  </text>
  <rect x="390" y="330" width="420" height="54" rx="14" fill="#0b1224" stroke="#2a3550" stroke-width="2" />
  <rect x="390" y="405" width="420" height="54" rx="14" fill="#0b1224" stroke="#2a3550" stroke-width="2" />
  <rect x="390" y="485" width="420" height="60" rx="16" fill="#4f46e5" />
  <text x="600" y="524" fill="#ffffff" font-size="22" font-family="ui-sans-serif, system-ui" text-anchor="middle">
    ??
  </text>
</svg>
<svg xmlns="http://www.w3.org/2000/svg" width="1200" height="675" viewBox="0 0 1200 675">
  <defs>
    <linearGradient id="g" x1="0" y1="0" x2="1" y2="1">
      <stop offset="0" stop-color="#6366f1" stop-opacity="0.35"/>
      <stop offset="1" stop-color="#10b981" stop-opacity="0.25"/>
    </linearGradient>
    <linearGradient id="btn" x1="0" y1="0" x2="1" y2="1">
      <stop offset="0" stop-color="#6366f1"/>
      <stop offset="1" stop-color="#10b981"/>
    </linearGradient>
    <filter id="shadow" x="-20%" y="-20%" width="140%" height="140%">
      <feDropShadow dx="0" dy="14" stdDeviation="18" flood-color="#000" flood-opacity="0.18"/>
    </filter>
  </defs>

  <rect width="1200" height="675" fill="#0b1220"/>
  <rect width="1200" height="675" fill="url(#g)"/>

  <g filter="url(#shadow)">
    <rect x="390" y="145" width="420" height="385" rx="18" fill="rgba(255,255,255,0.06)" stroke="rgba(229,231,235,0.14)"/>
  </g>

  <text x="420" y="210" font-size="28" font-family="system-ui,Segoe UI,Roboto" fill="#e5e7eb" font-weight="800">{U</text>
  <text x="420" y="240" font-size="14" font-family="system-ui,Segoe UI,Roboto" fill="rgba(229,231,235,0.65)">Ř¤&÷Ćadmin / admin</text>

  <text x="420" y="290" font-size="12" font-family="system-ui,Segoe UI,Roboto" fill="rgba(229,231,235,0.65)">&÷</text>
  <rect x="420" y="302" width="360" height="44" rx="12" fill="#0b1220" stroke="rgba(229,231,235,0.14)"/>
  <text x="438" y="331" font-size="14" font-family="system-ui,Segoe UI,Roboto" fill="#e5e7eb">admin</text>

  <text x="420" y="380" font-size="12" font-family="system-ui,Segoe UI,Roboto" fill="rgba(229,231,235,0.65)">Ć</text>
  <rect x="420" y="392" width="360" height="44" rx="12" fill="#0b1220" stroke="rgba(229,231,235,0.14)"/>
  <text x="438" y="421" font-size="14" font-family="system-ui,Segoe UI,Roboto" fill="rgba(229,231,235,0.65)">""""""</text>

  <rect x="420" y="458" width="360" height="46" rx="12" fill="url(#btn)"/>
  <text x="600" y="488" text-anchor="middle" font-size="15" font-family="system-ui,Segoe UI,Roboto" fill="#fff" font-weight="700">{U</text>

  <text x="600" y="610" text-anchor="middle" font-size="13" font-family="system-ui,Segoe UI,Roboto" fill="rgba(229,231,235,0.65)">*ţ:SVG `M	</text>
</svg>

